# xmcd CD database file
#
# Track frame offsets:
#	150
#	25529
#	53812
#	75080
#	109094
#	134058
#	168478
#	191607
#	212456
#	248089
#	260801
#	271811
#	304667
#	331808
#	342475
#
# Disc length: 4706 seconds
#
# Revision: 0
# Processed by: cddbd v1.5.2PL0 Copyright (c) Steve Scherf et al.
# Submitted via: CDex 1.51
#
DISCID=cc12600f
DTITLE=Roy Eldridge - Three Classic Albums plus CD2
DYEAR=1956
DGENRE=Jazz
TTITLE0=That's a Plenty
TTITLE1=Royal Garden Blues
TTITLE2=Jazz me Blues
TTITLE3=Tin Roof Blues
TTITLE4=Struttin' with Some Barbecue
TTITLE5=Black and Blue
TTITLE6=Bugle Call Rag
TTITLE7=Jada
TTITLE8=Bean Stalkin'
TTITLE9=The Nearness of You
TTITLE10=Time On My Hands
TTITLE11=The Walker
TTITLE12=Tea For Two
TTITLE13=Blue Moon
TTITLE14=Cocktails For Two
EXTD=YEAR: 1956
EXTT0=
EXTT1=
EXTT2=
EXTT3=
EXTT4=
EXTT5=
EXTT6=
EXTT7=
EXTT8=
EXTT9=
EXTT10=
EXTT11=
EXTT12=
EXTT13=
EXTT14=
PLAYORDER=
